<?xml version="1.0" standalone="no"?>
<!DOCTYPE svg PUBLIC "-//W3C//DTD SVG 20010904//EN"
 "http://www.w3.org/TR/2001/REC-SVG-20010904/DTD/svg10.dtd">
<svg version="1.0" xmlns="http://www.w3.org/2000/svg"
 width="1280.000000pt" height="1280.000000pt" viewBox="0 0 1280.000000 1280.000000"
 preserveAspectRatio="xMidYMid meet">
<metadata>
Created by potrace 1.15, written by Peter Selinger 2001-2017
</metadata>
<g transform="translate(0.000000,1280.000000) scale(0.100000,-0.100000)"
fill="#dddddd" stroke="none" stroke-linecap="round">
<path d="M10875 12705 c-73 -39 -101 -93 -93 -177 9 -84 65 -139 151 -146 102
-8 177 53 185 152 8 104 -54 177 -156 183 -39 3 -66 -1 -87 -12z"/>
<path d="M6715 12641 c-110 -50 -154 -178 -99 -289 66 -134 240 -158 342 -48
78 85 81 194 9 282 -58 70 -167 94 -252 55z"/>
<path d="M2810 12574 c-79 -34 -124 -106 -125 -199 -1 -216 291 -297 400 -110
65 110 26 248 -87 306 -45 23 -138 25 -188 3z"/>
<path d="M5750 12568 c-157 -81 -157 -300 0 -387 92 -51 208 -23 276 66 107
141 3 343 -176 343 -38 0 -70 -7 -100 -22z"/>
<path d="M4336 12530 c-85 -75 -65 -196 39 -236 59 -22 110 -8 154 41 25 29
31 45 31 81 0 88 -55 144 -142 144 -38 0 -54 -6 -82 -30z"/>
<path d="M1490 12519 c-14 -6 -38 -22 -53 -37 -88 -83 -88 -211 0 -294 78 -74
221 -62 286 24 101 134 10 319 -155 317 -29 0 -64 -5 -78 -10z"/>
<path d="M12322 12479 c-135 -67 -133 -266 3 -336 38 -20 122 -20 161 0 39 20
92 80 100 113 4 14 4 49 2 79 -11 128 -148 202 -266 144z"/>
<path d="M9339 12366 c-211 -59 -370 -221 -425 -436 -22 -87 -15 -240 16 -327
63 -181 224 -330 406 -377 78 -20 222 -21 298 -1 82 21 189 80 252 137 71 66
122 145 157 248 55 157 37 329 -49 485 -64 115 -222 234 -360 270 -70 18 -230
19 -295 1z"/>
<path d="M10505 12361 c-120 -73 -134 -218 -31 -309 88 -77 234 -44 286 63 43
89 6 201 -80 245 -51 26 -134 27 -175 1z"/>
<path d="M674 12351 c-103 -26 -199 -108 -248 -211 -28 -58 -31 -75 -31 -155
0 -80 3 -97 31 -155 38 -80 106 -150 182 -187 50 -24 68 -27 157 -28 91 0 106
3 160 29 76 38 143 105 181 181 26 54 29 70 29 160 0 90 -3 106 -29 160 -38
77 -106 144 -181 180 -48 23 -77 29 -140 31 -44 2 -94 -1 -111 -5z"/>
<path d="M3517 12153 c-115 -68 -148 -204 -77 -316 80 -126 257 -138 357 -23
88 99 65 258 -49 333 -33 23 -55 28 -112 31 -63 3 -76 0 -119 -25z"/>
<path d="M8030 12146 c-104 -30 -176 -90 -222 -184 -30 -60 -33 -75 -33 -157
0 -76 4 -98 26 -145 35 -75 98 -136 177 -173 55 -26 78 -31 142 -31 64 0 87 5
142 31 81 38 142 97 177 172 22 48 26 70 26 146 0 82 -3 97 -33 157 -56 115
-162 185 -289 193 -40 3 -87 -1 -113 -9z"/>
<path d="M2697 11950 c-108 -28 -212 -113 -263 -215 -26 -55 -29 -69 -29 -165
0 -93 3 -112 26 -161 112 -239 422 -303 614 -128 203 186 158 513 -89 634 -59
29 -87 37 -147 40 -41 2 -91 0 -112 -5z"/>
<path d="M5910 11944 c-145 -39 -247 -144 -286 -294 -45 -177 47 -370 215
-453 61 -30 72 -32 171 -32 97 0 110 2 170 31 83 39 155 111 194 194 29 60 31
73 31 170 0 95 -3 111 -28 162 -57 116 -164 202 -285 227 -69 14 -114 13 -182
-5z"/>
<path d="M11725 11914 c-144 -79 -155 -265 -20 -349 39 -24 58 -30 104 -29 66
1 106 20 149 68 77 88 58 228 -39 293 -52 34 -147 42 -194 17z"/>
<path d="M4852 11797 c-172 -63 -192 -298 -32 -387 107 -59 247 -11 295 102
69 167 -96 345 -263 285z"/>
<path d="M1690 11670 c-113 -38 -186 -164 -162 -279 38 -183 244 -267 391
-161 130 94 144 268 32 380 -35 35 -63 53 -102 64 -67 20 -91 20 -159 -4z"/>
<path d="M7155 11606 c-90 -41 -135 -114 -135 -218 0 -175 183 -288 339 -209
118 60 164 196 107 316 -28 60 -56 87 -116 114 -61 28 -132 27 -195 -3z"/>
<path d="M10757 11620 c-64 -17 -138 -60 -188 -111 -194 -200 -135 -521 119
-646 52 -26 67 -28 167 -28 98 0 116 3 165 26 164 77 263 262 232 431 -25 134
-108 244 -227 300 -53 24 -82 31 -148 34 -45 2 -99 -1 -120 -6z"/>
<path d="M12546 11398 c-119 -25 -172 -163 -103 -267 64 -97 220 -97 284 0 88
134 -24 300 -181 267z"/>
<path d="M8330 11210 c-278 -102 -348 -451 -130 -653 118 -110 279 -134 426
-65 62 28 153 119 182 180 95 196 12 428 -186 521 -87 41 -207 48 -292 17z"/>
<path d="M500 11084 c-161 -70 -182 -293 -37 -391 150 -101 347 4 347 184 -1
132 -92 224 -222 223 -29 -1 -69 -8 -88 -16z"/>
<path d="M4120 11018 c-204 -124 -117 -438 122 -438 60 0 140 33 175 71 81 88
83 229 4 320 -47 56 -100 79 -181 79 -57 0 -73 -4 -120 -32z"/>
<path d="M11595 10997 c-22 -22 -35 -45 -35 -61 0 -106 131 -144 184 -54 35
59 -4 133 -77 145 -32 5 -41 1 -72 -30z"/>
<path d="M5744 10716 c-59 -19 -98 -52 -129 -108 -64 -116 -14 -262 107 -312
77 -33 182 -14 241 42 125 119 78 328 -84 376 -62 19 -80 19 -135 2z"/>
<path d="M6822 10723 c-35 -7 -89 -64 -101 -109 -25 -93 43 -184 137 -184 90
0 153 59 154 144 1 59 -27 106 -82 134 -43 21 -61 24 -108 15z"/>
<path d="M1058 10680 c-77 -42 -129 -145 -113 -222 24 -112 104 -178 215 -178
88 0 154 43 191 125 41 88 8 205 -73 261 -55 38 -163 45 -220 14z"/>
<path d="M9293 10670 c-211 -121 -124 -440 119 -440 175 0 288 178 214 335
-41 90 -114 135 -218 135 -52 0 -73 -6 -115 -30z"/>
<path d="M11868 10675 c-118 -62 -169 -214 -111 -330 22 -43 72 -94 118 -118
56 -30 164 -30 221 0 191 101 184 365 -11 454 -60 28 -157 25 -217 -6z"/>
<path d="M2760 10609 c-76 -34 -120 -90 -135 -172 -23 -123 88 -256 214 -257
136 0 231 91 231 224 0 163 -164 271 -310 205z"/>
<path d="M3343 10480 c-115 -70 -63 -250 72 -250 76 0 135 59 135 135 0 106
-116 171 -207 115z"/>
<path d="M4600 10368 c-165 -47 -193 -277 -44 -364 154 -90 340 54 294 227
-15 56 -80 123 -135 138 -47 13 -68 13 -115 -1z"/>
<path d="M11044 10270 c-121 -17 -248 -113 -302 -227 -24 -52 -27 -69 -27
-168 0 -98 3 -116 27 -167 74 -159 253 -255 423 -228 216 35 374 248 336 455
-42 224 -235 365 -457 335z"/>
<path d="M1786 10218 c-57 -15 -120 -82 -135 -143 -27 -108 40 -221 145 -243
133 -29 247 61 247 193 0 92 -59 170 -148 194 -46 13 -56 13 -109 -1z"/>
<path d="M12581 10118 c-143 -25 -217 -198 -136 -319 74 -112 232 -130 325
-37 l30 30 0 122 c0 120 0 123 -27 148 -55 51 -117 69 -192 56z"/>
<path d="M932 9919 c-109 -18 -210 -97 -258 -202 -23 -51 -28 -76 -29 -142 0
-71 4 -88 33 -147 40 -82 111 -149 190 -178 81 -31 205 -25 280 14 110 56 181
162 190 285 16 229 -178 407 -406 370z"/>
<path d="M11857 9917 c-88 -28 -140 -120 -118 -207 23 -86 91 -135 182 -128
103 7 165 80 157 184 -9 112 -115 185 -221 151z"/>
<path d="M6213 9601 c-104 -38 -189 -116 -241 -221 -25 -50 -27 -65 -27 -170
0 -105 2 -120 28 -171 53 -108 144 -188 256 -224 84 -27 207 -18 294 22 87 41
159 113 200 201 30 62 32 75 32 172 0 97 -2 110 -31 170 -52 111 -124 176
-237 219 -75 27 -199 28 -274 2z"/>
<path d="M1729 9572 c-43 -22 -59 -38 -82 -82 -25 -47 -28 -63 -23 -109 6 -69
45 -126 105 -158 124 -65 273 17 287 158 5 46 2 62 -23 109 -23 44 -39 60 -82
82 -31 16 -69 28 -91 28 -22 0 -60 -12 -91 -28z"/>
<path d="M9000 9591 c-112 -36 -174 -118 -174 -232 0 -54 5 -74 28 -113 111
-190 389 -147 437 68 22 98 -33 211 -123 257 -45 23 -129 33 -168 20z"/>
<path d="M4060 9441 c-49 -15 -89 -41 -122 -81 -77 -89 -77 -211 0 -300 111
-131 311 -109 387 43 66 133 -1 291 -143 333 -49 15 -83 16 -122 5z"/>
<path d="M7062 9399 c-103 -51 -149 -183 -101 -289 41 -90 107 -133 204 -133
192 0 295 219 174 367 -62 74 -187 99 -277 55z"/>
<path d="M10144 9256 c-41 -18 -102 -92 -110 -133 -23 -124 53 -234 175 -250
50 -7 104 11 148 50 142 125 59 348 -129 347 -29 -1 -67 -7 -84 -14z"/>
<path d="M12124 9182 c-60 -21 -97 -49 -134 -100 -37 -51 -50 -94 -50 -167 0
-107 64 -201 168 -247 56 -25 168 -22 226 7 170 82 205 306 70 442 -78 79
-174 101 -280 65z"/>
<path d="M478 9141 c-77 -49 -108 -144 -73 -228 20 -48 41 -71 87 -94 124 -63
271 27 271 166 0 148 -159 236 -285 156z"/>
<path d="M3083 9156 c-109 -35 -215 -133 -254 -234 -33 -86 -36 -191 -9 -271
117 -346 576 -379 737 -53 36 72 38 81 38 171 -1 76 -5 108 -24 154 -32 80
-115 168 -198 209 -57 28 -78 33 -157 35 -57 2 -107 -2 -133 -11z"/>
<path d="M8195 9145 c-5 -2 -22 -6 -37 -9 -39 -9 -98 -64 -119 -111 -59 -128
36 -274 179 -275 178 -1 266 205 144 333 -15 16 -38 35 -52 42 -27 13 -98 26
-115 20z"/>
<path d="M5205 9061 c-84 -39 -135 -120 -135 -216 0 -135 94 -229 230 -229
252 0 324 340 95 445 -52 24 -138 24 -190 0z"/>
<path d="M1351 8943 c-132 -69 -89 -263 58 -263 82 0 141 56 141 135 0 103
-111 175 -199 128z"/>
<path d="M9581 8735 c-89 -28 -151 -115 -151 -215 0 -131 91 -220 225 -220 85
0 159 46 198 125 59 121 -6 271 -134 309 -63 19 -80 19 -138 1z"/>
<path d="M2255 8639 c-17 -4 -46 -24 -64 -43 -28 -29 -35 -45 -39 -88 -3 -44
0 -59 20 -87 36 -53 71 -74 121 -74 89 0 152 61 152 148 0 39 -6 61 -21 82
-40 53 -112 79 -169 62z"/>
<path d="M12444 8551 c-64 -30 -97 -81 -102 -157 -4 -54 -1 -70 21 -106 61
-105 214 -124 293 -36 57 62 69 141 33 216 -43 87 -155 126 -245 83z"/>
<path d="M11495 8322 c-180 -64 -291 -252 -256 -433 42 -212 226 -345 438
-318 122 16 240 103 296 218 29 60 31 74 31 161 0 75 -4 107 -22 150 -32 81
-108 162 -190 202 -58 29 -78 33 -157 36 -66 2 -103 -2 -140 -16z"/>
<path d="M1120 8305 c-113 -32 -219 -130 -257 -237 -11 -35 -18 -81 -18 -133
0 -69 5 -89 32 -147 74 -157 224 -239 398 -216 116 16 221 92 279 203 29 56
31 67 31 165 0 95 -3 111 -28 162 -79 162 -269 249 -437 203z"/>
<path d="M5302 8252 c-74 -27 -122 -69 -159 -141 -54 -103 -44 -214 26 -307
167 -219 515 -98 514 178 -1 196 -197 335 -381 270z"/>
<path d="M6223 8221 c-137 -50 -227 -158 -254 -305 -47 -255 188 -492 443
-446 90 17 145 46 214 115 71 70 103 142 112 247 12 168 -97 331 -262 389 -72
25 -183 25 -253 0z"/>
<path d="M10400 8224 c-108 -46 -170 -177 -137 -285 52 -168 265 -229 391
-111 120 113 90 319 -58 388 -60 28 -142 31 -196 8z"/>
<path d="M4535 7974 c-47 -24 -73 -53 -91 -100 -35 -91 5 -192 91 -234 91 -44
196 -11 248 78 21 36 25 128 6 164 -17 33 -60 78 -91 94 -36 19 -126 18 -163
-2z"/>
<path d="M9029 7967 c-121 -51 -190 -115 -242 -225 -30 -63 -32 -74 -32 -177
0 -104 2 -114 33 -177 57 -117 157 -201 277 -232 324 -85 614 217 515 536 -37
120 -113 207 -229 261 -58 28 -79 32 -166 35 -87 2 -107 0 -156 -21z"/>
<path d="M7330 7924 c-179 -38 -357 -178 -438 -344 -61 -124 -75 -191 -70
-330 7 -184 63 -313 189 -439 128 -128 280 -193 459 -195 116 -1 183 12 278
55 184 82 318 238 371 429 26 91 28 247 6 335 -59 234 -250 426 -481 485 -91
23 -218 25 -314 4z"/>
<path d="M3503 7826 c-227 -74 -322 -355 -187 -553 70 -102 172 -156 300 -157
75 0 88 3 157 37 85 42 132 90 175 177 24 48 27 66 27 150 -1 82 -4 102 -28
150 -34 71 -106 143 -177 178 -45 22 -71 27 -140 29 -51 2 -102 -3 -127 -11z"/>
<path d="M2260 7319 c-80 -36 -125 -96 -136 -183 -17 -123 92 -246 217 -246
94 0 171 46 208 125 87 186 -104 388 -289 304z"/>
<path d="M11565 7277 c-56 -22 -84 -49 -111 -103 -31 -63 -30 -117 3 -181 46
-88 172 -130 259 -85 79 41 114 97 114 183 0 138 -139 235 -265 186z"/>
<path d="M10570 7231 c-92 -30 -163 -90 -207 -174 -24 -45 -28 -63 -28 -142 0
-75 4 -98 25 -140 99 -203 367 -249 526 -91 154 155 117 409 -75 514 -55 30
-75 36 -140 38 -42 2 -87 0 -101 -5z"/>
<path d="M12169 7217 c-24 -13 -57 -43 -74 -66 -26 -37 -30 -51 -30 -111 0
-60 4 -74 30 -111 114 -162 365 -86 365 111 0 151 -158 247 -291 177z"/>
<path d="M555 7165 c-5 -2 -22 -6 -37 -9 -41 -9 -95 -61 -114 -111 -59 -156
96 -304 248 -237 137 60 150 257 21 329 -37 21 -98 36 -118 28z"/>
<path d="M5215 6771 c-140 -64 -173 -243 -62 -347 84 -80 200 -85 284 -11 47
41 73 99 73 162 0 154 -158 259 -295 196z"/>
<path d="M5933 6725 c-208 -56 -331 -251 -288 -456 25 -123 99 -217 215 -273
59 -28 74 -31 165 -31 93 0 105 2 166 32 80 39 150 111 187 191 24 50 27 69
27 157 0 91 -3 106 -31 165 -54 115 -159 197 -283 220 -69 13 -94 12 -158 -5z"/>
<path d="M1555 6587 c-171 -83 -212 -309 -80 -442 76 -76 196 -101 297 -62 58
23 139 108 156 164 39 131 -11 263 -125 330 -67 39 -178 44 -248 10z"/>
<path d="M8618 6531 c-196 -63 -195 -336 1 -387 222 -57 351 253 152 364 -44
25 -113 35 -153 23z"/>
<path d="M9405 6446 c-70 -30 -115 -115 -101 -188 32 -168 249 -198 327 -45
72 140 -80 297 -226 233z"/>
<path d="M4253 6385 c-94 -47 -143 -128 -143 -235 0 -152 108 -260 259 -260
106 1 190 53 237 146 26 54 26 174 0 228 -45 90 -123 138 -231 144 -60 3 -77
0 -122 -23z"/>
<path d="M3115 6297 c-114 -38 -200 -113 -249 -217 -29 -60 -31 -73 -31 -170
0 -98 2 -109 32 -170 17 -36 43 -77 56 -92 148 -161 388 -182 557 -48 102 81
163 239 142 368 -23 136 -106 247 -229 305 -56 26 -82 32 -153 34 -52 2 -101
-2 -125 -10z"/>
<path d="M6977 6075 c-73 -25 -109 -78 -109 -157 1 -90 72 -158 164 -158 83 0
158 75 158 157 0 115 -108 196 -213 158z"/>
<path d="M12485 6036 c-59 -27 -77 -46 -104 -106 -36 -80 -22 -157 41 -226 85
-92 209 -94 298 -4 106 105 80 268 -53 335 -64 31 -117 32 -182 1z"/>
<path d="M1098 5991 c-31 -10 -72 -28 -91 -40 -54 -33 -126 -116 -155 -179
-24 -51 -27 -69 -27 -167 0 -101 2 -115 29 -170 127 -257 464 -306 659 -95 77
83 101 147 102 270 0 86 -3 101 -31 160 -45 94 -102 153 -189 196 -93 46 -205
56 -297 25z"/>
<path d="M11666 5880 c-208 -36 -360 -247 -326 -453 53 -326 444 -454 676
-223 91 92 129 208 112 340 -29 219 -242 373 -462 336z"/>
<path d="M9105 5846 c-37 -17 -80 -62 -94 -99 -61 -160 130 -305 266 -201 39
30 73 94 73 139 0 36 -30 104 -56 127 -50 44 -132 59 -189 34z"/>
<path d="M2208 5764 c-89 -48 -70 -189 29 -223 83 -29 158 28 158 121 0 45 -4
53 -37 84 -31 28 -45 34 -80 34 -24 -1 -55 -7 -70 -16z"/>
<path d="M8004 5709 c-47 -13 -124 -87 -150 -144 -59 -126 -4 -279 122 -341
103 -50 210 -36 292 39 82 77 110 177 77 277 -45 136 -196 211 -341 169z"/>
<path d="M185 5580 c-77 -17 -119 -67 -120 -146 0 -64 23 -99 86 -132 105 -55
218 28 207 150 -9 85 -91 145 -173 128z"/>
<path d="M5468 5546 c-147 -52 -201 -212 -117 -339 78 -118 272 -130 354 -23
81 107 71 236 -24 317 -65 56 -138 72 -213 45z"/>
<path d="M10495 5511 c-83 -39 -136 -123 -136 -216 0 -266 368 -325 456 -74
54 151 -62 309 -224 309 -33 0 -72 -8 -96 -19z"/>
<path d="M10005 5398 c-112 -40 -160 -172 -100 -274 100 -170 359 -87 343 111
-6 70 -39 118 -102 150 -53 27 -92 30 -141 13z"/>
<path d="M6145 5196 c-116 -28 -217 -111 -272 -224 -25 -51 -28 -67 -28 -162
0 -97 2 -110 31 -170 39 -83 111 -155 194 -194 60 -29 73 -31 170 -31 93 0
112 3 162 27 162 75 261 262 230 430 -30 161 -141 282 -297 322 -69 19 -121
19 -190 2z"/>
<path d="M2932 5154 c-142 -71 -176 -249 -70 -368 46 -53 104 -79 179 -79 176
-1 289 186 209 343 -61 118 -199 163 -318 104z"/>
<path d="M880 5149 c-14 -6 -37 -22 -52 -36 -76 -72 -19 -203 88 -203 85 0
146 92 114 170 -23 55 -98 90 -150 69z"/>
<path d="M4649 5147 c-61 -17 -104 -49 -134 -101 -90 -153 17 -340 194 -339
126 0 221 96 221 223 0 149 -138 256 -281 217z"/>
<path d="M7255 5010 c-273 -91 -353 -438 -148 -643 153 -153 389 -152 543 3
124 123 151 290 75 447 -82 167 -291 253 -470 193z"/>
<path d="M8159 4807 c-53 -28 -103 -98 -113 -156 -17 -106 59 -218 164 -241
172 -38 315 136 241 295 -51 111 -186 158 -292 102z"/>
<path d="M722 4764 c-112 -30 -210 -113 -265 -223 -30 -62 -32 -72 -32 -176 0
-104 2 -114 32 -176 44 -89 111 -154 203 -198 70 -34 82 -36 170 -36 89 0 100
2 170 36 92 45 160 111 203 199 30 61 32 71 32 175 0 104 -2 114 -32 176 -90
182 -289 275 -481 223z"/>
<path d="M1820 4740 c-39 -13 -68 -33 -102 -68 -190 -200 15 -515 277 -425 68
23 137 93 160 162 47 142 -33 293 -178 336 -65 19 -90 19 -157 -5z"/>
<path d="M9838 4746 c-209 -58 -281 -323 -130 -479 52 -55 106 -79 183 -85
118 -8 216 44 276 145 40 69 45 181 11 255 -60 131 -206 202 -340 164z"/>
<path d="M11620 4749 c-115 -23 -221 -107 -274 -219 -28 -59 -31 -74 -31 -165
0 -93 2 -105 32 -166 39 -80 111 -150 191 -187 50 -24 69 -27 157 -27 91 0
106 3 165 31 116 56 190 150 215 273 45 215 -94 419 -315 461 -60 11 -77 11
-140 -1z"/>
<path d="M3583 4530 c-41 -25 -53 -48 -53 -105 0 -40 5 -52 34 -81 30 -30 40
-34 86 -34 46 0 56 4 86 34 28 28 34 42 34 75 0 106 -99 165 -187 111z"/>
<path d="M5222 4280 c-57 -35 -77 -111 -45 -177 22 -47 66 -73 125 -73 39 0
54 6 83 31 49 44 63 95 41 153 -31 81 -128 112 -204 66z"/>
<path d="M4300 4234 c-86 -37 -142 -124 -142 -219 0 -177 180 -289 340 -209
171 85 171 333 0 418 -60 30 -142 34 -198 10z"/>
<path d="M5949 4072 c-153 -80 -184 -276 -64 -397 150 -150 403 -57 422 155
18 195 -186 332 -358 242z"/>
<path d="M2915 3912 c-151 -71 -153 -262 -4 -340 117 -61 261 31 261 168 0
133 -140 227 -257 172z"/>
<path d="M11895 3836 c-65 -29 -105 -94 -105 -171 0 -109 76 -185 185 -185 77
0 140 41 170 113 27 64 13 150 -33 200 -47 52 -151 72 -217 43z"/>
<path d="M8643 3770 c-49 -10 -115 -42 -164 -81 -116 -92 -164 -276 -108 -424
31 -84 130 -183 214 -214 73 -27 188 -30 255 -6 175 62 284 244 250 418 -42
216 -235 348 -447 307z"/>
<path d="M7495 3670 c-259 -42 -440 -288 -397 -542 64 -380 516 -535 793 -272
101 97 149 208 149 344 0 135 -48 247 -148 342 -109 105 -253 151 -397 128z"/>
<path d="M9934 3616 c-59 -26 -95 -100 -80 -161 4 -14 21 -42 39 -62 64 -70
174 -51 220 37 30 59 10 138 -46 174 -34 23 -97 28 -133 12z"/>
<path d="M1048 3581 c-31 -10 -72 -28 -91 -40 -54 -33 -126 -116 -155 -179
-24 -50 -27 -69 -27 -162 0 -99 2 -110 33 -172 41 -84 128 -167 209 -199 46
-19 78 -23 153 -24 86 0 101 3 162 32 122 58 205 166 230 301 31 167 -67 348
-227 424 -86 40 -201 48 -287 19z"/>
<path d="M3515 3536 c-109 -34 -195 -106 -244 -204 -103 -205 -21 -447 187
-545 62 -30 75 -32 172 -32 99 0 110 2 172 33 76 37 153 114 187 186 105 225
-12 491 -248 560 -65 19 -170 20 -226 2z"/>
<path d="M5584 3530 c-72 -29 -128 -80 -163 -152 -27 -52 -31 -72 -31 -138 0
-66 4 -86 30 -138 53 -106 138 -162 256 -170 94 -6 158 15 224 75 28 25 63 69
78 97 23 44 27 63 26 136 0 69 -4 94 -23 130 -32 61 -86 117 -146 148 -69 35
-179 41 -251 12z"/>
<path d="M10700 3520 c-114 -22 -190 -116 -190 -235 0 -74 24 -129 75 -174 50
-43 93 -61 151 -61 141 0 244 99 244 233 0 69 -20 120 -63 165 -58 60 -140 88
-217 72z"/>
<path d="M2217 3379 c-154 -53 -259 -175 -289 -337 -40 -215 115 -436 340
-483 153 -31 323 35 419 165 142 192 96 469 -101 602 -106 72 -253 93 -369 53z"/>
<path d="M4824 3340 c-60 -19 -126 -73 -158 -130 -26 -46 -30 -65 -30 -125 0
-60 4 -79 30 -125 52 -93 157 -148 258 -136 139 16 249 152 233 288 -7 54 -45
133 -79 164 -62 57 -180 87 -254 64z"/>
<path d="M9384 3131 c-74 -34 -122 -127 -105 -204 19 -81 63 -127 142 -148
171 -45 302 175 181 305 -59 62 -144 81 -218 47z"/>
<path d="M6580 3073 c-192 -99 -135 -379 82 -399 71 -7 149 31 193 94 27 39
30 52 30 116 0 62 -4 78 -28 114 -39 60 -93 93 -164 99 -50 4 -66 1 -113 -24z"/>
<path d="M12466 3019 c-27 -4 -69 -20 -94 -36 -161 -99 -179 -316 -37 -441
113 -99 264 -94 370 12 193 192 32 505 -239 465z"/>
<path d="M5190 2841 c-50 -16 -87 -40 -123 -80 -100 -111 -63 -296 75 -367 49
-25 131 -29 184 -9 194 74 217 326 39 430 -47 28 -131 41 -175 26z"/>
<path d="M11257 2836 c-80 -29 -134 -83 -163 -163 -18 -50 -17 -100 1 -154 57
-166 264 -224 396 -110 149 127 100 371 -85 426 -60 18 -99 18 -149 1z"/>
<path d="M500 2788 c-19 -7 -58 -35 -86 -63 -58 -58 -80 -118 -71 -190 31
-224 318 -286 435 -94 31 51 33 59 30 131 -3 66 -7 82 -33 119 -61 86 -180
128 -275 97z"/>
<path d="M3080 2748 c-49 -34 -72 -71 -78 -126 -16 -172 214 -242 302 -92 44
75 11 187 -67 223 -50 24 -117 22 -157 -5z"/>
<path d="M8337 2536 c-50 -18 -76 -42 -98 -91 -54 -117 27 -245 156 -245 94 0
175 79 175 171 0 41 -29 107 -58 132 -23 21 -87 46 -117 46 -11 0 -37 -6 -58
-13z"/>
<path d="M9455 2506 c-119 -53 -141 -206 -42 -293 126 -110 326 18 278 178
-31 103 -141 157 -236 115z"/>
<path d="M1267 2348 c-40 -23 -77 -86 -77 -129 0 -14 10 -45 23 -69 70 -137
277 -85 277 70 0 115 -123 186 -223 128z"/>
<path d="M2010 2279 c-77 -32 -140 -123 -140 -203 0 -132 96 -230 225 -230
176 0 281 185 191 339 -41 69 -94 99 -180 102 -39 2 -82 -2 -96 -8z"/>
<path d="M3795 2276 c-40 -17 -84 -63 -101 -103 -20 -47 -17 -127 6 -173 30
-59 111 -110 174 -110 80 0 173 70 196 147 26 87 -18 191 -99 233 -47 23 -130
26 -176 6z"/>
<path d="M273 2043 c-35 -7 -83 -68 -83 -106 0 -130 173 -157 219 -35 28 75
-52 158 -136 141z"/>
<path d="M12225 1974 c-97 -50 -139 -157 -99 -252 56 -135 215 -169 319 -68
78 75 85 174 18 264 -49 66 -166 94 -238 56z"/>
<path d="M7535 1950 c-203 -67 -313 -289 -244 -493 47 -140 153 -231 303 -258
207 -39 409 107 446 323 29 165 -67 342 -226 415 -78 35 -195 41 -279 13z"/>
<path d="M10515 1921 c-46 -21 -101 -79 -122 -130 -24 -58 -13 -163 24 -214
47 -68 102 -100 177 -105 80 -5 127 10 179 57 53 48 79 107 78 181 0 93 -57
179 -143 214 -50 21 -143 20 -193 -3z"/>
<path d="M2509 1897 c-96 -51 -116 -173 -40 -248 68 -69 161 -71 227 -5 63 63
65 155 5 220 -54 59 -121 70 -192 33z"/>
<path d="M5468 1906 c-52 -19 -83 -40 -111 -78 -81 -110 -53 -255 63 -326 51
-31 60 -33 127 -30 92 4 145 37 186 117 50 99 30 203 -52 273 -63 54 -141 70
-213 44z"/>
<path d="M733 1820 c-119 -72 -68 -253 71 -253 77 0 136 60 136 138 0 106
-116 171 -207 115z"/>
<path d="M8670 1757 c-49 -16 -123 -93 -138 -143 -31 -106 5 -213 91 -271 110
-74 248 -45 325 67 76 113 36 267 -88 333 -57 29 -125 35 -190 14z"/>
<path d="M4735 1556 c-125 -31 -229 -116 -287 -234 -31 -63 -33 -73 -33 -177
0 -103 2 -114 32 -177 44 -93 109 -160 200 -205 208 -103 461 -17 563 192 83
167 52 354 -79 486 -108 108 -254 150 -396 115z"/>
<path d="M3493 1506 c-104 -34 -194 -114 -241 -214 -24 -50 -27 -69 -27 -162
0 -94 3 -111 28 -161 43 -88 98 -143 185 -186 72 -36 81 -38 172 -38 88 0 101
3 160 33 111 55 177 132 211 244 55 181 -33 380 -206 463 -50 24 -75 29 -150
32 -57 2 -105 -2 -132 -11z"/>
<path d="M9291 1308 c-66 -15 -145 -97 -160 -166 -18 -85 0 -144 63 -208 42
-41 62 -54 104 -63 144 -31 274 73 273 220 0 147 -134 251 -280 217z"/>
<path d="M1500 1279 c-62 -26 -102 -89 -102 -159 0 -113 110 -202 212 -171 82
24 130 87 130 171 0 98 -61 162 -158 167 -32 1 -68 -2 -82 -8z"/>
<path d="M6354 1225 c-213 -46 -392 -221 -449 -440 -20 -77 -19 -220 1 -299
52 -204 227 -378 434 -431 89 -23 260 -16 347 15 237 83 402 317 403 571 0 84
-30 203 -72 282 -42 81 -164 203 -245 245 -125 66 -282 87 -419 57z"/>
<path d="M11092 1120 c-117 -42 -207 -136 -244 -254 -84 -274 154 -546 434
-496 287 52 420 383 248 618 -95 128 -288 186 -438 132z"/>
<path d="M12392 1110 c-171 -41 -208 -272 -57 -365 106 -66 240 -21 289 97 44
105 -17 230 -128 263 -54 16 -56 16 -104 5z"/>
<path d="M2703 910 c-164 -30 -312 -131 -398 -275 -105 -175 -107 -406 -5
-582 l30 -53 469 0 469 0 35 68 c52 100 67 161 67 276 0 85 -5 114 -29 183
-78 224 -271 371 -506 387 -44 2 -103 1 -132 -4z"/>
<path d="M9674 841 c-96 -44 -149 -135 -142 -245 13 -214 267 -310 419 -158
46 46 79 120 79 177 0 43 -30 121 -62 159 -65 79 -200 110 -294 67z"/>
<path d="M592 776 c-82 -27 -151 -93 -182 -174 -39 -103 -19 -207 56 -291 60
-67 120 -94 209 -95 166 -1 287 119 287 286 0 114 -57 204 -163 258 -52 27
-151 34 -207 16z"/>
<path d="M1386 758 c-23 -6 -57 -28 -82 -53 -124 -125 -37 -335 139 -335 60 0
103 18 144 61 40 42 53 77 53 138 0 128 -128 223 -254 189z"/>
<path d="M7775 726 c-37 -16 -92 -77 -101 -112 -12 -47 2 -121 29 -157 105
-139 331 -50 315 123 -11 114 -139 191 -243 146z"/>
<path d="M10529 487 c-37 -24 -79 -97 -79 -137 0 -40 42 -113 79 -137 47 -32
125 -32 171 -1 57 39 75 72 75 138 0 66 -18 99 -75 138 -46 31 -124 31 -171
-1z"/>
<path d="M4290 474 c-105 -28 -186 -98 -232 -201 -17 -37 -22 -67 -22 -133 0
-47 5 -97 12 -113 l12 -27 320 0 320 0 12 27 c7 16 12 66 12 113 0 66 -5 96
-22 133 -47 105 -127 173 -237 202 -72 18 -103 18 -175 -1z"/>
<path d="M12032 439 c-126 -64 -160 -234 -70 -344 88 -106 258 -106 346 0 58
71 67 161 25 246 -41 80 -94 113 -186 117 -58 2 -80 -1 -115 -19z"/>
<path d="M8964 424 c-61 -22 -118 -76 -144 -135 -32 -75 -26 -168 16 -235 l30
-49 173 -3 c199 -3 197 -4 237 83 74 157 -37 339 -214 351 -35 2 -73 -2 -98
-12z"/>
</g>
</svg>
